<svg xmlns="http://www.w3.org/2000/svg" viewBox="0 0 600 150"><g class="market-history-panel__line-graph"><path d="M8,0 S20,19.722280406132043 28,19.722280406132043 S40,20.13812641700852 48,20.13812641700852 S60,19.153660767966826 68,19.153660767966826 S80,19.259933558964775 88,19.259933558964775 S100,14.69940354974797 108,14.69940354974797 S120,11.009251204273482 128,11.009251204273482 S140,10.786675891497808 148,10.786675891497808 S160,10.786675891497808 168,10.786675891497808 S180,10.786675891497808 188,10.786675891497808 S200,10.821332160682687 208,10.821332160682687 S220,10.786675891497808 228,10.786675891497808 S240,10.786675891497808 248,10.786675891497808 S260,13.279342766645001 268,13.279342766645001 S280,14.768979828883076 288,14.768979828883076 S300,12.908163844089131 308,12.908163844089131 S320,11.135872839059644 328,11.135872839059644 S340,11.099792148253982 348,11.099792148253982 S360,11.432481956580745 368,11.432481956580745 S380,12.328040559536035 388,12.328040559536035 S400,10.786675891497808 408,10.786675891497808 S420,10.786675891497808 428,10.786675891497808 S440,10.786675891497808 448,10.786675891497808 S460,10.786675891497808 468,10.786675891497808 S480,10.786675891497808 488,10.786675891497808 S500,10.786675891497808 508,10.786675891497808 S520,10.786675891497808 528,10.786675891497808 S540,10.786675891497808 548,10.786675891497808 S560,12.109341196722994 568,12.109341196722994 S580,11.359282564237418 588,11.359282564237418" stroke="rgba(58.82%,41.18%,92.94%,1)" stroke-width="4px" fill="none"/></g><g class="market-history-panel__graph"><g transform="translate(0, 0)"><g class="bar-group bar-group--borrow"><rect x="0" y="80.58520184939687" width="16" height="69.41479815060313"/><text class="bar-group__label" x="8" y="170">May 31</text></g></g><g transform="translate(20, 0)"><g class="bar-group bar-group--borrow"><rect x="0" y="81.11069884050755" width="16" height="68.88930115949245"/><text class="bar-group__label" x="8" y="170">Jun 1</text></g></g><g transform="translate(40, 0)"><g class="bar-group bar-group--borrow"><rect x="0" y="81.17326330572084" width="16" height="68.82673669427916"/><text class="bar-group__label" x="8" y="170">Jun 2</text></g></g><g transform="translate(60, 0)"><g class="bar-group bar-group--borrow"><rect x="0" y="80" width="16" height="70"/><text class="bar-group__label" x="8" y="170">Jun 3</text></g></g><g transform="translate(80, 0)"><g class="bar-group bar-group--borrow"><rect x="0" y="80.04024688679092" width="16" height="69.95975311320908"/><text class="bar-group__label" x="8" y="170">Jun 4</text></g></g><g transform="translate(100, 0)"><g class="bar-group bar-group--borrow"><rect x="0" y="80.0511848242515" width="16" height="69.9488151757485"/><text class="bar-group__label" x="8" y="170">Jun 5</text></g></g><g transform="translate(120, 0)"><g class="bar-group bar-group--borrow"><rect x="0" y="80.25637827562409" width="16" height="69.74362172437591"/><text class="bar-group__label" x="8" y="170">Jun 6</text></g></g><g transform="translate(140, 0)"><g class="bar-group bar-group--borrow"><rect x="0" y="80.02123768097454" width="16" height="69.97876231902546"/><text class="bar-group__label" x="8" y="170">Jun 7</text></g></g><g transform="translate(160, 0)"><g class="bar-group bar-group--borrow"><rect x="0" y="81.19497966755023" width="16" height="68.80502033244977"/><text class="bar-group__label" x="8" y="170">Jun 8</text></g></g><g transform="translate(180, 0)"><g class="bar-group bar-group--borrow"><rect x="0" y="84.64603976554247" width="16" height="65.35396023445753"/><text class="bar-group__label" x="8" y="170">Jun 9</text></g></g><g transform="translate(200, 0)"><g class="bar-group bar-group--borrow"><rect x="0" y="85.84962019935483" width="16" height="64.15037980064517"/><text class="bar-group__label" x="8" y="170">Jun 10</text></g></g><g transform="translate(220, 0)"><g class="bar-group bar-group--borrow"><rect x="0" y="86.03794561700701" width="16" height="63.96205438299299"/><text class="bar-group__label" x="8" y="170">Jun 11</text></g></g><g transform="translate(240, 0)"><g class="bar-group bar-group--borrow"><rect x="0" y="87.219641205464" width="16" height="62.780358794536"/><text class="bar-group__label" x="8" y="170">Jun 12</text></g></g><g transform="translate(260, 0)"><g class="bar-group bar-group--borrow"><rect x="0" y="97.52380706169913" width="16" height="52.47619293830087"/><text class="bar-group__label" x="8" y="170">Jun 13</text></g></g><g transform="translate(280, 0)"><g class="bar-group bar-group--borrow"><rect x="0" y="96.25994376784217" width="16" height="53.740056232157826"/><text class="bar-group__label" x="8" y="170">Jun 14</text></g></g><g transform="translate(300, 0)"><g class="bar-group bar-group--borrow"><rect x="0" y="99.66680176236753" width="16" height="50.33319823763247"/><text class="bar-group__label" x="8" y="170">Jun 15</text></g></g><g transform="translate(320, 0)"><g class="bar-group bar-group--borrow"><rect x="0" y="99.45610957967844" width="16" height="50.54389042032156"/><text class="bar-group__label" x="8" y="170">Jun 16</text></g></g><g transform="translate(340, 0)"><g class="bar-group bar-group--borrow"><rect x="0" y="99.17212043451957" width="16" height="50.82787956548043"/><text class="bar-group__label" x="8" y="170">Jun 17</text></g></g><g transform="translate(360, 0)"><g class="bar-group bar-group--borrow"><rect x="0" y="99.17230544705143" width="16" height="50.82769455294857"/><text class="bar-group__label" x="8" y="170">Jun 18</text></g></g><g transform="translate(380, 0)"><g class="bar-group bar-group--borrow"><rect x="0" y="98.89680128607955" width="16" height="51.10319871392045"/><text class="bar-group__label" x="8" y="170">Jun 19</text></g></g><g transform="translate(400, 0)"><g class="bar-group bar-group--borrow"><rect x="0" y="131.53198600127195" width="16" height="18.468013998728054"/><text class="bar-group__label" x="8" y="170">Jun 20</text></g></g><g transform="translate(420, 0)"><g class="bar-group bar-group--borrow"><rect x="0" y="120.79088237884477" width="16" height="29.20911762115523"/><text class="bar-group__label" x="8" y="170">Jun 21</text></g></g><g transform="translate(440, 0)"><g class="bar-group bar-group--borrow"><rect x="0" y="114.19473654739673" width="16" height="35.80526345260327"/><text class="bar-group__label" x="8" y="170">Jun 22</text></g></g><g transform="translate(460, 0)"><g class="bar-group bar-group--borrow"><rect x="0" y="112.35095998533336" width="16" height="37.64904001466664"/><text class="bar-group__label" x="8" y="170">Jun 23</text></g></g><g transform="translate(480, 0)"><g class="bar-group bar-group--borrow"><rect x="0" y="112.18390374327404" width="16" height="37.816096256725956"/><text class="bar-group__label" x="8" y="170">Jun 24</text></g></g><g transform="translate(500, 0)"><g class="bar-group bar-group--borrow"><rect x="0" y="112.00835625661611" width="16" height="37.99164374338389"/><text class="bar-group__label" x="8" y="170">Jun 25</text></g></g><g transform="translate(520, 0)"><g class="bar-group bar-group--borrow"><rect x="0" y="106.64466381498255" width="16" height="43.35533618501745"/><text class="bar-group__label" x="8" y="170">Jun 26</text></g></g><g transform="translate(540, 0)"><g class="bar-group bar-group--borrow"><rect x="0" y="103.45900170288326" width="16" height="46.540998297116744"/><text class="bar-group__label" x="8" y="170">Jun 27</text></g></g><g transform="translate(560, 0)"><g class="bar-group bar-group--borrow"><rect x="0" y="94.12095143550209" width="16" height="55.87904856449791"/><text class="bar-group__label" x="8" y="170">Jun 28</text></g></g><g transform="translate(580, 0)"><g class="bar-group bar-group--borrow"><rect x="0" y="91.11463619656274" width="16" height="58.88536380343726"/><text class="bar-group__label" x="8" y="170">Jun 29</text></g></g></g><g/><g class="market-history-panel__hover-bars"><g transform="translate(0, 0)"><g class="hover-bar-group"><rect x="0" y="0" width="20" height="150"/></g></g><g transform="translate(20, 0)"><g class="hover-bar-group"><rect x="0" y="0" width="20" height="150"/></g></g><g transform="translate(40, 0)"><g class="hover-bar-group"><rect x="0" y="0" width="20" height="150"/></g></g><g transform="translate(60, 0)"><g class="hover-bar-group"><rect x="0" y="0" width="20" height="150"/></g></g><g transform="translate(80, 0)"><g class="hover-bar-group"><rect x="0" y="0" width="20" height="150"/></g></g><g transform="translate(100, 0)"><g class="hover-bar-group"><rect x="0" y="0" width="20" height="150"/></g></g><g transform="translate(120, 0)"><g class="hover-bar-group"><rect x="0" y="0" width="20" height="150"/></g></g><g transform="translate(140, 0)"><g class="hover-bar-group"><rect x="0" y="0" width="20" height="150"/></g></g><g transform="translate(160, 0)"><g class="hover-bar-group"><rect x="0" y="0" width="20" height="150"/></g></g><g transform="translate(180, 0)"><g class="hover-bar-group"><rect x="0" y="0" width="20" height="150"/></g></g><g transform="translate(200, 0)"><g class="hover-bar-group"><rect x="0" y="0" width="20" height="150"/></g></g><g transform="translate(220, 0)"><g class="hover-bar-group"><rect x="0" y="0" width="20" height="150"/></g></g><g transform="translate(240, 0)"><g class="hover-bar-group"><rect x="0" y="0" width="20" height="150"/></g></g><g transform="translate(260, 0)"><g class="hover-bar-group"><rect x="0" y="0" width="20" height="150"/></g></g><g transform="translate(280, 0)"><g class="hover-bar-group"><rect x="0" y="0" width="20" height="150"/></g></g><g transform="translate(300, 0)"><g class="hover-bar-group"><rect x="0" y="0" width="20" height="150"/></g></g><g transform="translate(320, 0)"><g class="hover-bar-group"><rect x="0" y="0" width="20" height="150"/></g></g><g transform="translate(340, 0)"><g class="hover-bar-group"><rect x="0" y="0" width="20" height="150"/></g></g><g transform="translate(360, 0)"><g class="hover-bar-group"><rect x="0" y="0" width="20" height="150"/></g></g><g transform="translate(380, 0)"><g class="hover-bar-group"><rect x="0" y="0" width="20" height="150"/></g></g><g transform="translate(400, 0)"><g class="hover-bar-group"><rect x="0" y="0" width="20" height="150"/></g></g><g transform="translate(420, 0)"><g class="hover-bar-group"><rect x="0" y="0" width="20" height="150"/></g></g><g transform="translate(440, 0)"><g class="hover-bar-group"><rect x="0" y="0" width="20" height="150"/></g></g><g transform="translate(460, 0)"><g class="hover-bar-group"><rect x="0" y="0" width="20" height="150"/></g></g><g transform="translate(480, 0)"><g class="hover-bar-group"><rect x="0" y="0" width="20" height="150"/></g></g><g transform="translate(500, 0)"><g class="hover-bar-group"><rect x="0" y="0" width="20" height="150"/></g></g><g transform="translate(520, 0)"><g class="hover-bar-group"><rect x="0" y="0" width="20" height="150"/></g></g><g transform="translate(540, 0)"><g class="hover-bar-group"><rect x="0" y="0" width="20" height="150"/></g></g><g transform="translate(560, 0)"><g class="hover-bar-group"><rect x="0" y="0" width="20" height="150"/></g></g><g transform="translate(580, 0)"><g class="hover-bar-group"><rect x="0" y="0" width="20" height="150"/></g></g></g></svg>