<svg xmlns="http://www.w3.org/2000/svg" viewBox="0 0 400 178"><polyline class="interest-rate-model__chart__line interest-rate-model__chart__line--utilization interest-rate-model__chart__line--utilization--lite" points="5,30 392,30"/><circle class="interest-rate-model__chart__circle" cx="345.56" cy="30" r="5"/><polyline class="interest-rate-model__chart__line" points="5,30 345.56,30"/><polyline class="interest-rate-model__chart__line interest-rate-model__chart__line--borrow interest-rate-model__chart__line--borrow--lite" points="5,145.77524896141196 8.870000000000001,145.30156478334953 12.74,144.8278805604279 16.61,144.3541963375063 20.48,143.88051215944387 24.35,143.40682793652223 28.22,142.93314371360063 32.09,142.45945949067902 35.96,141.98577531261657 39.83,141.51209108969496 43.7,141.03840686677336 47.57,140.56472264385172 51.44,140.0910384657893 55.31,139.6173542428677 59.18,139.14367001994606 63.050000000000004,138.66998584188363 66.92,138.19630161896202 70.79,137.7226173960404 74.66,137.2489331731188 78.53,136.77524899505636 82.4,136.30156477213472 86.27,135.82788054921312 90.14,135.35419632629151 94.01,134.88051214822906 97.88,134.40682792530745 101.75,133.93314370238585 105.62,133.4594595243234 109.49000000000001,132.9857753014018 113.36,132.51209107848018 117.23,132.03840685555855 121.10000000000001,131.56472267749612 124.97,131.09103845457452 128.84,130.61735423165288 132.71,130.14367000873128 136.58,129.66998583066885 140.45000000000002,129.19630160774722 144.32,128.7226173848256 148.19,128.248933161904 152.06,127.77524898384155 155.93,127.30156476091994 159.8,126.82788053799834 163.67000000000002,126.35419635993588 167.54,125.88051213701428 171.41,125.40682791409266 175.28,124.93314369117104 179.15,124.45945951310861 183.02,123.98577529018701 186.89000000000001,123.51209106726537 190.76,123.03840684434377 194.63,122.56472266628133 198.5,122.09103844335971 202.37,121.6173542204381 206.24,121.14367004237566 210.11,120.66998581945404 213.98000000000002,120.19630159653244 217.85,119.72261737361082 221.72,119.24893319554837 225.59,118.77524897262677 229.46,118.30156474970515 233.33,117.82788052678353 237.20000000000002,117.3541963487211 241.07,116.88051212579948 244.94,116.40682790287786 248.81,115.93314372481542 252.68,115.45945950189382 256.55,114.9857752789722 260.42,114.51209105605058 264.29,114.03840687798814 268.16,113.56472265506653 272.03000000000003,113.09103843214493 275.90000000000003,112.61735420922331 279.77,112.14367003116087 283.64,111.66998580823925 287.51,111.19630158531764 291.38,110.72261736239602 295.25,110.24893318433358 299.12,109.77524896141196 302.99,109.30156473849036 306.86,108.82788056042791 310.73,108.3541963375063 314.6,107.88051211458469 318.47,107.40682789166307 322.34000000000003,106.93314371360063 326.21000000000004,106.45945949067902 330.08,105.9857752677574 333.95,105.51209104483578 337.82,105.03840686677336 341.69,104.56472264385174 345.56,104.09103842093012 349.43,103.61735424286768 353.3,103.14367001994606 357.17,103.14367001994606 361.04,103.14367001994606 364.91,103.14367001994606 368.78000000000003,103.14367001994606 372.65000000000003,103.14367001994606 376.52,103.14367001994606 380.39,103.14367001994606 384.26,103.14367001994606 388.13,103.14367001994606 392,103.14367001994606"/><polyline class="interest-rate-model__chart__line interest-rate-model__chart__line--borrow" points="5,145.77524896141196 8.870000000000001,145.30156478334953 12.74,144.8278805604279 16.61,144.3541963375063 20.48,143.88051215944387 24.35,143.40682793652223 28.22,142.93314371360063 32.09,142.45945949067902 35.96,141.98577531261657 39.83,141.51209108969496 43.7,141.03840686677336 47.57,140.56472264385172 51.44,140.0910384657893 55.31,139.6173542428677 59.18,139.14367001994606 63.050000000000004,138.66998584188363 66.92,138.19630161896202 70.79,137.7226173960404 74.66,137.2489331731188 78.53,136.77524899505636 82.4,136.30156477213472 86.27,135.82788054921312 90.14,135.35419632629151 94.01,134.88051214822906 97.88,134.40682792530745 101.75,133.93314370238585 105.62,133.4594595243234 109.49000000000001,132.9857753014018 113.36,132.51209107848018 117.23,132.03840685555855 121.10000000000001,131.56472267749612 124.97,131.09103845457452 128.84,130.61735423165288 132.71,130.14367000873128 136.58,129.66998583066885 140.45000000000002,129.19630160774722 144.32,128.7226173848256 148.19,128.248933161904 152.06,127.77524898384155 155.93,127.30156476091994 159.8,126.82788053799834 163.67000000000002,126.35419635993588 167.54,125.88051213701428 171.41,125.40682791409266 175.28,124.93314369117104 179.15,124.45945951310861 183.02,123.98577529018701 186.89000000000001,123.51209106726537 190.76,123.03840684434377 194.63,122.56472266628133 198.5,122.09103844335971 202.37,121.6173542204381 206.24,121.14367004237566 210.11,120.66998581945404 213.98000000000002,120.19630159653244 217.85,119.72261737361082 221.72,119.24893319554837 225.59,118.77524897262677 229.46,118.30156474970515 233.33,117.82788052678353 237.20000000000002,117.3541963487211 241.07,116.88051212579948 244.94,116.40682790287786 248.81,115.93314372481542 252.68,115.45945950189382 256.55,114.9857752789722 260.42,114.51209105605058 264.29,114.03840687798814 268.16,113.56472265506653 272.03000000000003,113.09103843214493 275.90000000000003,112.61735420922331 279.77,112.14367003116087 283.64,111.66998580823925 287.51,111.19630158531764 291.38,110.72261736239602 295.25,110.24893318433358 299.12,109.77524896141196 302.99,109.30156473849036 306.86,108.82788056042791 310.73,108.3541963375063 314.6,107.88051211458469 318.47,107.40682789166307 322.34000000000003,106.93314371360063 326.21000000000004,106.45945949067902 330.08,105.9857752677574 333.95,105.51209104483578 337.82,105.03840686677336 341.69,104.56472264385174 345.56,104.09103842093012"/><circle class="interest-rate-model__chart__circle interest-rate-model__chart__circle--borrow" cx="345.56" cy="104.09103842093012" r="5"/><polyline class="interest-rate-model__chart__line interest-rate-model__chart__line--supply interest-rate-model__chart__line--supply--lite" points="5,160 8.870000000000001,159.51635847572337 12.74,159.03271695144673 16.61,158.5490754271701 20.48,158.06543385803428 24.35,157.58179233375765 28.22,157.098150809481 32.09,156.61450928520438 35.96,156.13086771606856 39.83,155.64722619179193 43.7,155.1635846675153 47.57,154.67994314323866 51.44,154.19630157410285 55.31,153.7126600498262 59.18,153.22901852554958 63.050000000000004,152.74537695641376 66.92,152.26173543213713 70.79,151.7780939078605 74.66,151.29445238358386 78.53,150.81081081444805 82.4,150.3271692901714 86.27,149.84352776589478 90.14,149.35988624161814 94.01,148.87624467248233 97.88,148.3926031482057 101.75,147.90896162392906 105.62,147.42532005479325 109.49000000000001,146.9416785305166 113.36,146.45803700623998 117.23,145.97439548196334 121.10000000000001,145.49075391282753 124.97,145.0071123885509 128.84,144.52347086427426 132.71,144.03982933999762 136.58,143.5561877708618 140.45000000000002,143.07254624658518 144.32,142.58890472230854 148.19,142.1052631980319 152.06,141.6216216288961 155.93,141.13798010461943 159.8,140.65433858034282 163.67000000000002,140.17069701120698 167.54,139.68705548693038 171.41,139.2034139626537 175.28,138.71977243837708 179.15,138.23613086924126 183.02,137.75248934496466 186.89000000000001,137.268847820688 190.76,136.78520629641136 194.63,136.30156472727555 198.5,135.8179232029989 202.37,135.33428167872228 206.24,134.8506401095865 210.11,134.36699858530986 213.98000000000002,133.8833570610332 217.85,133.39971553675656 221.72,132.91607396762075 225.59,132.4324324433441 229.46,131.9487909190675 233.33,131.46514939479084 237.20000000000002,130.98150782565503 241.07,130.4978663013784 244.94,130.01422477710176 248.81,129.53058320796595 252.68,129.0469416836893 256.55,128.56330015941268 260.42,128.07965863513604 264.29,127.59601706600024 268.16,127.1123755417236 272.03000000000003,126.62873401744696 275.90000000000003,126.14509249317032 279.77,125.66145092403451 283.64,125.17780939975788 287.51,124.69416787548124 291.38,124.2105263512046 295.25,123.72688478206881 299.12,123.24324325779216 302.99,122.75960173351552 306.86,122.27596016437971 310.73,121.79231864010308 314.6,121.30867711582644 318.47,120.8250355915498 322.34000000000003,120.341394022414 326.21000000000004,119.85775249813736 330.08,119.37411097386072 333.95,118.89046944958409 337.82,118.40682788044828 341.69,117.92318635617164 345.56,117.439544831895 349.43,116.9559032627592 353.3,116.47226173848256 357.17,115.98862021420592 361.04,115.50497868992929 364.91,115.02133712079348 368.78000000000003,114.53769559651684 372.65000000000003,114.0540540722402 376.52,103.24324325779216 380.39,92.43243244334411 384.26,81.62162162889607 388.13,70.81081081444805 392,60"/><polyline class="interest-rate-model__chart__line interest-rate-model__chart__line--supply" points="5,160 8.870000000000001,159.51635847572337 12.74,159.03271695144673 16.61,158.5490754271701 20.48,158.06543385803428 24.35,157.58179233375765 28.22,157.098150809481 32.09,156.61450928520438 35.96,156.13086771606856 39.83,155.64722619179193 43.7,155.1635846675153 47.57,154.67994314323866 51.44,154.19630157410285 55.31,153.7126600498262 59.18,153.22901852554958 63.050000000000004,152.74537695641376 66.92,152.26173543213713 70.79,151.7780939078605 74.66,151.29445238358386 78.53,150.81081081444805 82.4,150.3271692901714 86.27,149.84352776589478 90.14,149.35988624161814 94.01,148.87624467248233 97.88,148.3926031482057 101.75,147.90896162392906 105.62,147.42532005479325 109.49000000000001,146.9416785305166 113.36,146.45803700623998 117.23,145.97439548196334 121.10000000000001,145.49075391282753 124.97,145.0071123885509 128.84,144.52347086427426 132.71,144.03982933999762 136.58,143.5561877708618 140.45000000000002,143.07254624658518 144.32,142.58890472230854 148.19,142.1052631980319 152.06,141.6216216288961 155.93,141.13798010461943 159.8,140.65433858034282 163.67000000000002,140.17069701120698 167.54,139.68705548693038 171.41,139.2034139626537 175.28,138.71977243837708 179.15,138.23613086924126 183.02,137.75248934496466 186.89000000000001,137.268847820688 190.76,136.78520629641136 194.63,136.30156472727555 198.5,135.8179232029989 202.37,135.33428167872228 206.24,134.8506401095865 210.11,134.36699858530986 213.98000000000002,133.8833570610332 217.85,133.39971553675656 221.72,132.91607396762075 225.59,132.4324324433441 229.46,131.9487909190675 233.33,131.46514939479084 237.20000000000002,130.98150782565503 241.07,130.4978663013784 244.94,130.01422477710176 248.81,129.53058320796595 252.68,129.0469416836893 256.55,128.56330015941268 260.42,128.07965863513604 264.29,127.59601706600024 268.16,127.1123755417236 272.03000000000003,126.62873401744696 275.90000000000003,126.14509249317032 279.77,125.66145092403451 283.64,125.17780939975788 287.51,124.69416787548124 291.38,124.2105263512046 295.25,123.72688478206881 299.12,123.24324325779216 302.99,122.75960173351552 306.86,122.27596016437971 310.73,121.79231864010308 314.6,121.30867711582644 318.47,120.8250355915498 322.34000000000003,120.341394022414 326.21000000000004,119.85775249813736 330.08,119.37411097386072 333.95,118.89046944958409 337.82,118.40682788044828 341.69,117.92318635617164 345.56,117.439544831895"/><circle class="interest-rate-model__chart__circle interest-rate-model__chart__circle--supply" cx="345.56" cy="117.439544831895" r="5"/><rect x="4" y="0" width="392" height="178" fill="transparent"/></svg>