<svg class="logo logo--mark svg " width="41" height="54" viewBox="0 0 41 54" fill="none" xmlns="http://www.w3.org/2000/svg"><path fill-rule="evenodd" clip-rule="evenodd" d="M2.10212 42.0855C0.797756 41.2631 0 39.7983 0 38.2254V29.4427C0 29.1065 0.0873455 28.7823 0.250391 28.4942C0.756995 27.5937 1.88084 27.2875 2.7543 27.8158L21.982 39.3721C23.1058 40.0504 23.7987 41.2871 23.7987 42.6318V51.7328C23.7987 52.147 23.6881 52.5612 23.4785 52.9154C22.8438 53.984 21.4928 54.3202 20.4563 53.6658L2.10212 42.0855ZM30.7631 25.4085C31.8869 26.0869 32.5799 27.3235 32.5799 28.6683V47.1343C32.5799 47.6806 32.2946 48.1849 31.8345 48.449L27.6245 50.8923C27.5721 50.9223 27.5138 50.9464 27.4556 50.9644V40.7108C27.4556 39.3841 26.7801 38.1534 25.6738 37.469L8.78696 27.0534V15.4791C8.78696 15.1429 8.87431 14.8187 9.03735 14.5306C9.54396 13.6301 10.6678 13.3239 11.5413 13.8522L30.7631 25.4085ZM39.1774 11.7691C40.3071 12.4414 41 13.6901 41 15.0349V42.0075C41 42.5598 40.703 43.0701 40.2314 43.3342L36.2426 45.5554V26.7772C36.2426 25.4505 35.5671 24.2258 34.4666 23.5415L17.2071 12.8677V1.88771C17.2071 1.55153 17.2944 1.22735 17.4516 0.939193C17.9582 0.0387037 19.0821 -0.267463 19.9555 0.254821L39.1774 11.7691Z" fill="#00D395"/></svg>