<svg class="svg header__links__icon" width="13" height="13" viewBox="0 0 13 13" fill="none" xmlns="http://www.w3.org/2000/svg"><path d="M6.35355 3.34635C6.15829 3.54161 6.15829 3.85819 6.35355 4.05346L8.94628 6.64618C9.14154 6.84144 9.45812 6.84144 9.65338 6.64618L12.2461 4.05346C12.4414 3.85819 12.4414 3.54161 12.2461 3.34635L9.65338 0.753624C9.45812 0.558362 9.14154 0.558362 8.94628 0.753624L6.35355 3.34635Z" fill="#7A8A99"/><path d="M0.5 0.999592C0.223858 0.999592 0 1.22345 0 1.49959V5.83292C0 6.10907 0.223858 6.33292 0.5 6.33292H4.83333C5.10948 6.33292 5.33333 6.10907 5.33333 5.83292V1.49959C5.33333 1.22345 5.10948 0.999592 4.83333 0.999592H0.5Z" fill="#7A8A99"/><path d="M0.5 7.66643C0.223858 7.66643 0 7.89029 0 8.16643V12.4998C0 12.7759 0.223858 12.9998 0.5 12.9998H4.83333C5.10948 12.9998 5.33333 12.7759 5.33333 12.4998V8.16643C5.33333 7.89029 5.10948 7.66643 4.83333 7.66643H0.5Z" fill="#7A8A99"/><path d="M6.66667 8.16636C6.66667 7.89021 6.89052 7.66636 7.16667 7.66636H11.5C11.7761 7.66636 12 7.89021 12 8.16636V12.4997C12 12.7758 11.7761 12.9997 11.5 12.9997H7.16667C6.89052 12.9997 6.66667 12.7758 6.66667 12.4997V8.16636Z" fill="#7A8A99"/></svg>