<svg xmlns="http://www.w3.org/2000/svg" viewBox="0 0 600 150"><g class="market-history-panel__line-graph"><path d="M8,26.914993928480698 S20,27.2237851073712 28,27.2237851073712 S40,27.376162459611937 48,27.376162459611937 S60,27.015427269449845 68,27.015427269449845 S80,27.054368562442026 88,27.054368562442026 S100,25.38326534444244 108,25.38326534444244 S120,24.031092367739515 128,24.031092367739515 S140,0 148,0 S160,22.976006292188668 168,22.976006292188668 S180,23.840503485773603 188,23.840503485773603 S200,23.962233685178166 208,23.962233685178166 S220,23.519447300695568 228,23.519447300695568 S240,23.7359964332082 248,23.7359964332082 S260,24.862916161314097 268,24.862916161314097 S280,25.40876000785915 288,25.40876000785915 S300,24.726906020337044 308,24.726906020337044 S320,24.0774899947474 328,24.0774899947474 S340,24.064269081225564 348,24.064269081225564 S360,24.186175744542034 368,24.186175744542034 S380,24.514332920592096 388,24.514332920592096 S400,7.566370576561738 408,7.566370576561738 S420,4.564058948843069 428,4.564058948843069 S440,17.655548175674063 448,17.655548175674063 S460,17.767027356531543 468,17.767027356531543 S480,23.172199340260537 488,23.172199340260537 S500,23.063135104112927 508,23.063135104112927 S520,19.981320308455224 528,19.981320308455224 S540,15.00325770052227 548,15.00325770052227 S560,24.434195497573995 568,24.434195497573995 S580,24.159353474511576 588,24.159353474511576" stroke="rgba(0%,82.75%,58.43%,1)" stroke-width="4px" fill="none"/></g><g class="market-history-panel__graph"><g transform="translate(0, 0)"><g class="bar-group bar-group--earn"><rect x="0" y="80" width="16" height="70"/><text class="bar-group__label" x="8" y="170">May 31</text></g></g><g transform="translate(20, 0)"><g class="bar-group bar-group--earn"><rect x="0" y="85.64618495903173" width="16" height="64.35381504096827"/><text class="bar-group__label" x="8" y="170">Jun 1</text></g></g><g transform="translate(40, 0)"><g class="bar-group bar-group--earn"><rect x="0" y="87.10575617883816" width="16" height="62.89424382116184"/><text class="bar-group__label" x="8" y="170">Jun 2</text></g></g><g transform="translate(60, 0)"><g class="bar-group bar-group--earn"><rect x="0" y="83.66813955767435" width="16" height="66.33186044232565"/><text class="bar-group__label" x="8" y="170">Jun 3</text></g></g><g transform="translate(80, 0)"><g class="bar-group bar-group--earn"><rect x="0" y="83.52098982595268" width="16" height="66.47901017404732"/><text class="bar-group__label" x="8" y="170">Jun 4</text></g></g><g transform="translate(100, 0)"><g class="bar-group bar-group--earn"><rect x="0" y="87.09329935311555" width="16" height="62.906700646884445"/><text class="bar-group__label" x="8" y="170">Jun 5</text></g></g><g transform="translate(120, 0)"><g class="bar-group bar-group--earn"><rect x="0" y="94.71264316520345" width="16" height="55.287356834796554"/><text class="bar-group__label" x="8" y="170">Jun 6</text></g></g><g transform="translate(140, 0)"><g class="bar-group bar-group--earn"><rect x="0" y="91.19707778528368" width="16" height="58.80292221471632"/><text class="bar-group__label" x="8" y="170">Jun 7</text></g></g><g transform="translate(160, 0)"><g class="bar-group bar-group--earn"><rect x="0" y="93.07238667676839" width="16" height="56.92761332323161"/><text class="bar-group__label" x="8" y="170">Jun 8</text></g></g><g transform="translate(180, 0)"><g class="bar-group bar-group--earn"><rect x="0" y="94.63674137793723" width="16" height="55.36325862206277"/><text class="bar-group__label" x="8" y="170">Jun 9</text></g></g><g transform="translate(200, 0)"><g class="bar-group bar-group--earn"><rect x="0" y="106.54573916558363" width="16" height="43.454260834416374"/><text class="bar-group__label" x="8" y="170">Jun 10</text></g></g><g transform="translate(220, 0)"><g class="bar-group bar-group--earn"><rect x="0" y="105.90377348601771" width="16" height="44.09622651398229"/><text class="bar-group__label" x="8" y="170">Jun 11</text></g></g><g transform="translate(240, 0)"><g class="bar-group bar-group--earn"><rect x="0" y="105.44873724558525" width="16" height="44.55126275441475"/><text class="bar-group__label" x="8" y="170">Jun 12</text></g></g><g transform="translate(260, 0)"><g class="bar-group bar-group--earn"><rect x="0" y="108.2755826340991" width="16" height="41.724417365900905"/><text class="bar-group__label" x="8" y="170">Jun 13</text></g></g><g transform="translate(280, 0)"><g class="bar-group bar-group--earn"><rect x="0" y="105.50922555191329" width="16" height="44.49077444808671"/><text class="bar-group__label" x="8" y="170">Jun 14</text></g></g><g transform="translate(300, 0)"><g class="bar-group bar-group--earn"><rect x="0" y="117.23697044376755" width="16" height="32.76302955623245"/><text class="bar-group__label" x="8" y="170">Jun 15</text></g></g><g transform="translate(320, 0)"><g class="bar-group bar-group--earn"><rect x="0" y="112.48196080713427" width="16" height="37.51803919286573"/><text class="bar-group__label" x="8" y="170">Jun 16</text></g></g><g transform="translate(340, 0)"><g class="bar-group bar-group--earn"><rect x="0" y="103.6574815137127" width="16" height="46.342518486287304"/><text class="bar-group__label" x="8" y="170">Jun 17</text></g></g><g transform="translate(360, 0)"><g class="bar-group bar-group--earn"><rect x="0" y="104.98266289561832" width="16" height="45.01733710438168"/><text class="bar-group__label" x="8" y="170">Jun 18</text></g></g><g transform="translate(380, 0)"><g class="bar-group bar-group--earn"><rect x="0" y="105.62339710104268" width="16" height="44.376602898957316"/><text class="bar-group__label" x="8" y="170">Jun 19</text></g></g><g transform="translate(400, 0)"><g class="bar-group bar-group--earn"><rect x="0" y="134.01053927817563" width="16" height="15.989460721824372"/><text class="bar-group__label" x="8" y="170">Jun 20</text></g></g><g transform="translate(420, 0)"><g class="bar-group bar-group--earn"><rect x="0" y="115.19088971413782" width="16" height="34.809110285862175"/><text class="bar-group__label" x="8" y="170">Jun 21</text></g></g><g transform="translate(440, 0)"><g class="bar-group bar-group--earn"><rect x="0" y="109.66650281443296" width="16" height="40.33349718556704"/><text class="bar-group__label" x="8" y="170">Jun 22</text></g></g><g transform="translate(460, 0)"><g class="bar-group bar-group--earn"><rect x="0" y="110.9779286392255" width="16" height="39.022071360774504"/><text class="bar-group__label" x="8" y="170">Jun 23</text></g></g><g transform="translate(480, 0)"><g class="bar-group bar-group--earn"><rect x="0" y="110.13689388235568" width="16" height="39.86310611764432"/><text class="bar-group__label" x="8" y="170">Jun 24</text></g></g><g transform="translate(500, 0)"><g class="bar-group bar-group--earn"><rect x="0" y="102.91410327265024" width="16" height="47.08589672734976"/><text class="bar-group__label" x="8" y="170">Jun 25</text></g></g><g transform="translate(520, 0)"><g class="bar-group bar-group--earn"><rect x="0" y="95.45001608405283" width="16" height="54.549983915947166"/><text class="bar-group__label" x="8" y="170">Jun 26</text></g></g><g transform="translate(540, 0)"><g class="bar-group bar-group--earn"><rect x="0" y="93.20138558754377" width="16" height="56.79861441245623"/><text class="bar-group__label" x="8" y="170">Jun 27</text></g></g><g transform="translate(560, 0)"><g class="bar-group bar-group--earn"><rect x="0" y="92.36812715886344" width="16" height="57.631872841136556"/><text class="bar-group__label" x="8" y="170">Jun 28</text></g></g><g transform="translate(580, 0)"><g class="bar-group bar-group--earn"><rect x="0" y="89.41015769424914" width="16" height="60.589842305750864"/><text class="bar-group__label" x="8" y="170">Jun 29</text></g></g></g><g/><g class="market-history-panel__hover-bars"><g transform="translate(0, 0)"><g class="hover-bar-group"><rect x="0" y="0" width="20" height="150"/></g></g><g transform="translate(20, 0)"><g class="hover-bar-group"><rect x="0" y="0" width="20" height="150"/></g></g><g transform="translate(40, 0)"><g class="hover-bar-group"><rect x="0" y="0" width="20" height="150"/></g></g><g transform="translate(60, 0)"><g class="hover-bar-group"><rect x="0" y="0" width="20" height="150"/></g></g><g transform="translate(80, 0)"><g class="hover-bar-group"><rect x="0" y="0" width="20" height="150"/></g></g><g transform="translate(100, 0)"><g class="hover-bar-group"><rect x="0" y="0" width="20" height="150"/></g></g><g transform="translate(120, 0)"><g class="hover-bar-group"><rect x="0" y="0" width="20" height="150"/></g></g><g transform="translate(140, 0)"><g class="hover-bar-group"><rect x="0" y="0" width="20" height="150"/></g></g><g transform="translate(160, 0)"><g class="hover-bar-group"><rect x="0" y="0" width="20" height="150"/></g></g><g transform="translate(180, 0)"><g class="hover-bar-group"><rect x="0" y="0" width="20" height="150"/></g></g><g transform="translate(200, 0)"><g class="hover-bar-group"><rect x="0" y="0" width="20" height="150"/></g></g><g transform="translate(220, 0)"><g class="hover-bar-group"><rect x="0" y="0" width="20" height="150"/></g></g><g transform="translate(240, 0)"><g class="hover-bar-group"><rect x="0" y="0" width="20" height="150"/></g></g><g transform="translate(260, 0)"><g class="hover-bar-group"><rect x="0" y="0" width="20" height="150"/></g></g><g transform="translate(280, 0)"><g class="hover-bar-group"><rect x="0" y="0" width="20" height="150"/></g></g><g transform="translate(300, 0)"><g class="hover-bar-group"><rect x="0" y="0" width="20" height="150"/></g></g><g transform="translate(320, 0)"><g class="hover-bar-group"><rect x="0" y="0" width="20" height="150"/></g></g><g transform="translate(340, 0)"><g class="hover-bar-group"><rect x="0" y="0" width="20" height="150"/></g></g><g transform="translate(360, 0)"><g class="hover-bar-group"><rect x="0" y="0" width="20" height="150"/></g></g><g transform="translate(380, 0)"><g class="hover-bar-group"><rect x="0" y="0" width="20" height="150"/></g></g><g transform="translate(400, 0)"><g class="hover-bar-group"><rect x="0" y="0" width="20" height="150"/></g></g><g transform="translate(420, 0)"><g class="hover-bar-group"><rect x="0" y="0" width="20" height="150"/></g></g><g transform="translate(440, 0)"><g class="hover-bar-group"><rect x="0" y="0" width="20" height="150"/></g></g><g transform="translate(460, 0)"><g class="hover-bar-group"><rect x="0" y="0" width="20" height="150"/></g></g><g transform="translate(480, 0)"><g class="hover-bar-group"><rect x="0" y="0" width="20" height="150"/></g></g><g transform="translate(500, 0)"><g class="hover-bar-group"><rect x="0" y="0" width="20" height="150"/></g></g><g transform="translate(520, 0)"><g class="hover-bar-group"><rect x="0" y="0" width="20" height="150"/></g></g><g transform="translate(540, 0)"><g class="hover-bar-group"><rect x="0" y="0" width="20" height="150"/></g></g><g transform="translate(560, 0)"><g class="hover-bar-group"><rect x="0" y="0" width="20" height="150"/></g></g><g transform="translate(580, 0)"><g class="hover-bar-group"><rect x="0" y="0" width="20" height="150"/></g></g></g></svg>