<svg class="svg header__links__icon" width="13" height="11" viewBox="0 0 13 11" fill="none" xmlns="http://www.w3.org/2000/svg"><path fill-rule="evenodd" clip-rule="evenodd" d="M0.93042 0.833252C0.93042 0.55711 1.15428 0.333252 1.43042 0.333252H12.4304C12.7066 0.333252 12.9304 0.55711 12.9304 0.833252V2.49992C12.9304 2.77606 12.7066 2.99992 12.4304 2.99992H1.43042C1.15428 2.99992 0.93042 2.77606 0.93042 2.49992V0.833252ZM0.93042 4.83325C0.93042 4.55711 1.15428 4.33325 1.43042 4.33325H7.09709C7.37323 4.33325 7.59709 4.55711 7.59709 4.83325V10.4999C7.59709 10.7761 7.37323 10.9999 7.09709 10.9999H1.43042C1.15428 10.9999 0.93042 10.7761 0.93042 10.4999V4.83325ZM9.43042 4.33325C9.15428 4.33325 8.93042 4.55711 8.93042 4.83325V9.16659C8.93042 9.44273 9.15428 9.66659 9.43042 9.66659H12.4304C12.7066 9.66659 12.9304 9.44273 12.9304 9.16659V4.83325C12.9304 4.55711 12.7066 4.33325 12.4304 4.33325H9.43042Z" fill="#7A8A99"/></svg>