<svg class="svg header__links__icon" width="13" height="12" viewBox="0 0 13 12" fill="none" xmlns="http://www.w3.org/2000/svg"><path fill-rule="evenodd" clip-rule="evenodd" d="M6.5 12C9.81371 12 12.5 9.31371 12.5 6C12.5 2.68629 9.81371 0 6.5 0C3.18629 0 0.5 2.68629 0.5 6C0.5 9.31371 3.18629 12 6.5 12ZM4.29636 5.41074L5.82843 6.94281L8.77471 3.99653C8.96997 3.80127 9.28655 3.80127 9.48181 3.99653L9.71751 4.23223C9.91278 4.4275 9.91278 4.74408 9.71751 4.93934L6.18198 8.47487C5.98672 8.67014 5.67014 8.67014 5.47487 8.47487L3.35355 6.35355C3.15829 6.15829 3.15829 5.84171 3.35355 5.64645L3.58926 5.41074C3.78452 5.21548 4.1011 5.21548 4.29636 5.41074Z" fill="#6D7E8F"/></svg>