<svg class="svg header__links__icon" width="13" height="12" viewBox="0 0 13 12" fill="none" xmlns="http://www.w3.org/2000/svg"><path fill-rule="evenodd" clip-rule="evenodd" d="M4.83331 0.5C4.83331 0.223858 5.05717 0 5.33331 0H7.66665C7.94279 0 8.16665 0.223858 8.16665 0.5V11.5C8.16665 11.7761 7.94279 12 7.66665 12H5.33331C5.05717 12 4.83331 11.7761 4.83331 11.5V0.5ZM0.166647 4.5C0.166647 4.22386 0.390505 4 0.666647 4H2.99998C3.27612 4 3.49998 4.22386 3.49998 4.5V11.5C3.49998 11.7761 3.27612 12 2.99998 12H0.666646C0.390504 12 0.166647 11.7761 0.166647 11.5V4.5ZM9.99998 1.33333C9.72384 1.33333 9.49998 1.55719 9.49998 1.83333V11.5C9.49998 11.7761 9.72384 12 9.99998 12H12.3333C12.6095 12 12.8333 11.7761 12.8333 11.5V1.83333C12.8333 1.55719 12.6095 1.33333 12.3333 1.33333H9.99998Z" fill="#6D7E8F"/></svg>