<svg width="44" height="44" viewBox="0 0 44 44" fill="none" xmlns="http://www.w3.org/2000/svg"><mask id="mask0_1_1247" maskUnits="userSpaceOnUse" x="0" y="0" width="44" height="44" style="mask-type: alpha;"><path fill-rule="evenodd" clip-rule="evenodd" d="M42.1392 30.8688C43.3357 28.1559 44 25.1555 44 22C44 9.84974 34.1503 0 22 0C9.84974 0 0 9.84974 0 22C0 34.1503 9.84974 44 22 44C25.1555 44 28.1559 43.3357 30.8688 42.1392C29.7024 40.7491 29 38.9566 29 37C29 32.5817 32.5817 29 37 29C38.9566 29 40.7491 29.7024 42.1392 30.8688Z" fill="var(--button--neutral)"/></mask><g mask="url(#mask0_1_1247)"><rect width="44" height="44" rx="22" fill="var(--button--neutral)"/><path fill-rule="evenodd" clip-rule="evenodd" d="M15.3333 18C15.3333 16.8954 16.2288 16 17.3333 16H26C26.7364 16 27.3333 16.597 27.3333 17.3333H17.3333C16.9651 17.3333 16.6667 17.6318 16.6667 18C16.6667 18.3682 16.9651 18.6667 17.3333 18.6667H26.6667C27.7712 18.6667 28.6667 19.5621 28.6667 20.6667V24.6667C28.6667 25.7712 27.7712 26.6667 26.6667 26.6667H17.3333C16.2288 26.6667 15.3333 25.7712 15.3333 24.6667V18ZM26.6667 23.3333C27.0349 23.3333 27.3333 23.0349 27.3333 22.6667C27.3333 22.2985 27.0349 22 26.6667 22C26.2985 22 26 22.2985 26 22.6667C26 23.0349 26.2985 23.3333 26.6667 23.3333Z" fill="var(--icon--1)"/></g><g style="position: relative;"><circle cx="37" cy="37" r="5" fill="var(--icon--2)"/></g></svg>